<svg width="591" height="811" viewBox="0 0 591 811" fill="none" xmlns="http://www.w3.org/2000/svg">
<path d="M296.805 669.287C295.156 670.331 293.051 670.32 291.412 669.259L81 533L40.5 554.25L0 575.5L291.478 755.877C293.085 756.872 295.117 756.875 296.727 755.885L588.618 576.464C590.098 575.554 591 573.942 591 572.204V218.571C591 216.957 590.221 215.443 588.909 214.504L519.909 165.156C516.6 162.79 512 165.155 512 169.223V530.248C512 531.962 511.123 533.556 509.675 534.472L296.805 669.287Z" fill="#62993E"/>
<path d="M81 533L82.9516 169.022C82.9727 165.094 78.6656 162.677 75.3242 164.741L2.37254 209.799C0.897774 210.71 0 212.32 0 214.053V575.5L40.5 554.25L81 533Z" fill="#62993E"/>
<path d="M291.359 219.226L117.883 328.48C114.854 330.388 114.752 334.766 117.688 336.813L174.825 376.636C176.451 377.769 178.592 377.835 180.285 376.804L291.514 309.075C293.104 308.107 295.099 308.102 296.694 309.062L404.588 374.047C406.086 374.949 407.945 375.004 409.493 374.191L469.041 342.917C472.402 341.152 472.647 336.434 469.488 334.329L296.796 219.296C295.156 218.203 293.027 218.176 291.359 219.226Z" fill="#38A8DA"/>
<path fill-rule="evenodd" clip-rule="evenodd" d="M294.1 26V117.5L383.953 175.846C385.518 176.862 387.519 176.923 389.142 176.002L457.703 137.136C460.998 135.269 461.101 130.559 457.891 128.549L294.1 26Z" fill="#0770B1"/>
<path d="M294.1 117.5V26L130.518 126.201C127.32 128.16 127.337 132.812 130.549 134.748L198.823 175.887C200.461 176.874 202.518 176.84 204.123 175.801L294.1 117.5Z" fill="#0770B1"/>
<path fill-rule="evenodd" clip-rule="evenodd" d="M285.1 379L231.417 413.412C230.845 413.779 230.499 414.41 230.496 415.089L230.004 566.335C230.001 567.055 230.386 567.721 231.011 568.078L285.1 599L285 489L285.1 379Z" fill="#38A8DA"/>
<path d="M308.574 380.956C307.242 380.109 305.5 381.065 305.5 382.643V595.55C305.5 597.086 307.161 598.049 308.494 597.285L359.494 568.076C360.116 567.72 360.5 567.058 360.5 566.341V415.098C360.5 414.414 360.151 413.778 359.574 413.411L308.574 380.956Z" fill="#0770B1"/>
</svg>
